<?xml version="1.0" encoding="UTF-8"?>
<svg width="72px" height="72px" viewBox="0 0 72 72" version="1.1" xmlns="http://www.w3.org/2000/svg" xmlns:xlink="http://www.w3.org/1999/xlink">
    <title>Artboard</title>
    <g id="Artboard" stroke="none" stroke-width="1" fill="none" fill-rule="evenodd">
        <g id="tffu" transform="translate(-1.000000, -1.000000)" fill="#FFFFFF" fill-rule="nonzero">
            <path d="M65.44,57.24 C65.44,63.68 60.92,67.8 52.28,67.8 C44.44,67.8 39.76,63 39.76,56.84 L39.76,39.92 C39.76,39.68 39.76,39.68 39.96,39.68 L49.28,39.68 C49.56,39.68 49.56,39.68 49.56,40 L49.56,55.48 C49.56,58.2 50.76,59.32 52.92,59.32 C55.04,59.32 56.28,58.24 56.28,55.48 L56.28,39.96 C56.28,39.72 56.28,39.68 56.56,39.68 L65.24,39.68 C65.44,39.68 65.44,39.68 65.44,39.96 L65.44,57.24 L65.44,57.24 Z M61.32,7.68 L61.32,13.6 C61.32,13.92 61.36,13.96 61,13.96 L50.56,13.96 L50.56,19.2 L59.92,19.2 C60.28,19.2 60.24,19.36 60.24,19.68 L60.24,25.84 C60.24,26.2 60.28,26.24 59.92,26.24 L50.56,26.24 L50.56,33.84 C50.56,34.28 50.52,34.4 50.2,34.4 L41.6,34.4 C41.24,34.4 41.2,34.44 41.2,33.84 L41.2,7.84 C41.2,7.32 41.2,7.28 41.6,7.28 L61,7.28 C61.36,7.28 61.32,7.36 61.32,7.68 M32.96,14.48 C32.96,14.72 32.92,14.76 32.68,14.76 L25.64,14.32 L25.64,34.04 C25.64,34.36 25.6,34.4 25.24,34.4 L16.56,34.4 C16.16,34.4 16.16,34.44 16.16,34.04 L16.16,14.32 L8.88,14.76 C8.6,14.76 8.6,14.72 8.6,14.48 L8.6,7.68 C8.6,7.36 8.6,7.28 8.92,7.28 L32.64,7.28 C32.92,7.28 32.96,7.36 32.96,7.68 L32.96,14.48 Z M10.8,40.24 C10.8,39.72 10.8,39.68 11.2,39.68 L30.6,39.68 C30.96,39.68 30.92,39.76 30.92,40.08 L30.92,46 C30.92,46.32 30.96,46.36 30.6,46.36 L20.16,46.36 L20.16,51.6 L29.52,51.6 C29.88,51.6 29.84,51.76 29.84,52.08 L29.84,58.24 C29.84,58.6 29.88,58.64 29.52,58.64 L20.16,58.64 L20.16,66.24 C20.16,66.68 20.12,66.8 19.8,66.8 L11.2,66.8 C10.84,66.8 10.8,66.84 10.8,66.24 L10.8,40.24 Z M74.31,0.67 L0.67,0.67 L0.67,73.59 L74.31,73.59 L74.31,0.67 Z" id="Shape"></path>
        </g>
    </g>
</svg>