<?xml version="1.0" encoding="UTF-8"?>
<svg width="114px" height="114px" viewBox="0 0 114 114" version="1.1" xmlns="http://www.w3.org/2000/svg" xmlns:xlink="http://www.w3.org/1999/xlink">
    <title>tf</title>
    <g id="Page-1" stroke="none" stroke-width="1" fill="none" fill-rule="evenodd">
        <g id="tf" transform="translate(0.000000, -0.000000)" fill="#FFFFFF" fill-rule="nonzero">
            <path d="M113.4,64.6 C113.7,62.1 113.9,59.6 113.9,57.1 C113.9,54.7 113.7,52.2 113.4,49.7 L113.4,49.6 L103.7,50.8 C103.2,46.6 102.1,42.7 100.5,38.9 L109.5,35.2 C107.6,30.6 105.1,26.3 102.1,22.3 L94.4,28.2 C91.9,24.9 89,22 85.7,19.5 L91.6,11.8 C87.7,8.8 83.3,6.3 78.8,4.4 L75.1,13.4 C71.3,11.8 67.4,10.8 63.2,10.2 L64.5,0.5 C62.1,0.2 59.6,0 57.1,0 C54.7,0 52.2,0.2 49.7,0.5 L49.6,0.5 L50.8,10.2 C46.6,10.7 42.7,11.8 38.9,13.4 L35.2,4.4 C30.6,6.3 26.3,8.8 22.3,11.8 L28.2,19.5 C24.9,22 22,24.9 19.5,28.2 L11.8,22.3 C8.8,26.2 6.3,30.5 4.4,35.1 L13.4,38.9 C11.8,42.7 10.8,46.6 10.2,50.8 L0.5,49.5 C0.2,51.9 0,54.4 0,56.9 C0,59.3 0.2,61.8 0.5,64.3 L0.5,64.3 L10.2,63.1 C10.7,67.3 11.8,71.2 13.4,75 L4.4,78.7 C6.3,83.3 8.8,87.6 11.8,91.6 L19.5,85.7 C22,89 24.9,91.9 28.2,94.4 L22.3,102.1 C26.2,105.1 30.5,107.6 35.1,109.5 L38.9,100.5 C42.7,102.1 46.6,103.1 50.8,103.7 L49.5,113.4 C52,113.7 54.5,113.9 56.9,113.9 C59.3,113.9 61.8,113.7 64.3,113.4 L64.3,113.4 L63,103.7 L63,103.7 C67.2,103.2 71.1,102.1 74.9,100.5 L78.6,109.5 C83.2,107.6 87.5,105.1 91.5,102.1 L85.6,94.4 C88.9,91.9 91.8,89 94.3,85.7 L102,91.7 C105,87.8 107.5,83.5 109.4,78.9 L100.4,75.1 C102,71.3 103.1,67.4 103.6,63.2 L113.4,64.6 Z M61.8,93.9 C41.5,96.5 22.8,82.2 20.2,61.8 C17.6,41.5 31.9,22.8 52.3,20.2 C72.6,17.6 91.3,31.9 93.9,52.3 C96.5,72.6 82.2,91.2 61.8,93.9 Z" id="Shape"></path>
            <polygon id="Path" points="55.4 35.8 33.7 35.8 33.7 45.7 52.1 45.7 52.1 86.9 62 86.9 62 68.2 72.3 68.2 72.3 58.3 64.5 58.3 63.9 58.3 62 58.3 62 45.7 80.4 45.7 80.4 35.8 57.2 35.8"></polygon>
        </g>
    </g>
</svg>